<?xml version="1.0" standalone="no"?>
<!DOCTYPE svg PUBLIC "-//W3C//DTD SVG 20010904//EN"
 "http://www.w3.org/TR/2001/REC-SVG-20010904/DTD/svg10.dtd">
<svg version="1.0"
    xmlns="http://www.w3.org/2000/svg" width="632.000000pt" height="183.000000pt" viewBox="0 0 632.000000 183.000000" preserveAspectRatio="xMidYMid meet">

    <g transform="translate(0.000000,183.000000) scale(0.100000,-0.100000)" fill="#303f9f" stroke="none">
        <path d="M490 1809 c-119 -33 -205 -83 -295 -174 -162 -162 -218 -344 -181
-587 38 -255 160 -513 362 -764 106 -132 247 -274 272 -274 22 0 179 159 274
278 319 400 445 851 319 1145 -72 167 -218 303 -389 362 -109 38 -257 43 -362
14z m218 -229 c93 -57 49 -200 -62 -200 -110 0 -151 145 -58 203 36 22 80 21
120 -3z m-176 -256 l78 -37 0 -198 0 -198 -48 28 c-58 34 -142 66 -200 76 -26
4 -46 14 -52 25 -14 26 -13 306 1 332 17 32 119 19 221 -28z m452 30 c3 -9 6
-87 6 -174 0 -114 -3 -160 -12 -168 -7 -5 -40 -15 -72 -22 -33 -7 -97 -31
-143 -55 l-83 -43 2 196 3 196 40 23 c95 54 246 82 259 47z"/>
        <path d="M1944 1611 c-17 -11 -36 -34 -43 -52 -15 -43 -16 -1137 -1 -1191 6
-20 22 -46 37 -58 48 -38 137 -19 161 35 9 19 12 181 12 621 l0 596 -34 34
c-40 40 -83 45 -132 15z"/>
        <path d="M2394 1576 c-38 -17 -44 -32 -44 -102 0 -65 19 -89 78 -99 46 -7 114
8 132 31 7 8 14 42 14 74 1 48 -3 64 -20 80 -27 27 -116 36 -160 16z"/>
        <path d="M4910 1280 c-202 -37 -341 -177 -386 -390 -51 -238 51 -466 250 -559
150 -71 317 -69 473 5 114 54 153 124 103 187 -34 44 -70 44 -162 0 -77 -36
-88 -38 -178 -38 -85 0 -100 3 -141 27 -75 44 -149 146 -135 185 4 10 71 13
320 13 l314 0 30 25 c36 30 41 53 31 138 -9 75 -51 173 -100 235 -101 125
-279 198 -419 172z m184 -228 c77 -42 135 -149 90 -166 -24 -9 -442 -7 -448 2
-9 16 17 81 46 117 71 86 204 105 312 47z"/>
        <path d="M5835 1276 c-123 -30 -223 -118 -244 -216 -21 -99 7 -188 79 -254 50
-45 96 -65 238 -107 141 -41 180 -62 198 -105 12 -30 12 -38 -1 -69 -36 -87
-212 -89 -329 -4 -26 19 -61 44 -78 57 -43 31 -83 29 -119 -7 -105 -105 82
-270 326 -288 176 -13 322 57 381 182 43 91 28 205 -38 280 -51 58 -80 72
-260 129 -159 50 -198 77 -198 135 0 117 197 136 324 31 62 -51 103 -54 148
-10 26 27 30 36 25 67 -4 23 -20 51 -44 76 -91 94 -265 138 -408 103z"/>
        <path d="M4181 1248 c-32 -12 -72 -38 -98 -64 -24 -24 -46 -44 -48 -44 -3 0
-5 12 -5 26 0 15 -12 38 -29 55 -24 24 -38 29 -76 29 -38 0 -52 -5 -76 -29
l-29 -29 0 -411 c0 -297 3 -417 12 -436 31 -69 140 -72 185 -6 16 23 18 55 18
296 0 260 1 272 23 320 51 111 123 148 230 121 74 -20 104 -14 137 26 37 44
34 91 -9 134 -33 33 -37 34 -107 33 -50 0 -92 -7 -128 -21z"/>
        <path d="M2803 1249 c-46 -13 -76 -55 -70 -99 4 -28 214 -502 344 -778 37 -79
118 -108 175 -62 34 26 388 805 388 852 0 44 -22 74 -65 88 -39 13 -71 6 -100
-21 -11 -10 -76 -149 -145 -308 -69 -160 -129 -289 -134 -288 -5 2 -66 133
-135 292 -130 295 -143 317 -201 328 -14 3 -39 1 -57 -4z"/>
        <path d="M2410 1237 c-14 -7 -33 -28 -42 -47 -16 -32 -18 -73 -18 -418 0 -411
2 -431 51 -466 48 -33 134 -12 157 39 9 19 12 138 12 431 l0 406 -34 34 c-37
37 -80 44 -126 21z"/>
    </g>
</svg>
