<?xml version="1.0" standalone="no"?>
<!DOCTYPE svg PUBLIC "-//W3C//DTD SVG 20010904//EN"
 "http://www.w3.org/TR/2001/REC-SVG-20010904/DTD/svg10.dtd">
<svg version="1.0"
    xmlns="http://www.w3.org/2000/svg" width="761.000000pt" height="241.000000pt" viewBox="0 0 761.000000 241.000000" preserveAspectRatio="xMidYMid meet">

    <g transform="translate(0.000000,241.000000) scale(0.100000,-0.100000)" fill="#000000" stroke="none">
        <path d="M2580 1200 c0 -1193 0 -1200 20 -1200 20 0 20 7 20 1200 0 1193 0
1200 -20 1200 -20 0 -20 -7 -20 -1200z"/>
        <path d="M560 1814 c-536 -390 -560 -408 -560 -420 0 -6 8 -18 18 -27 17 -16
94 -17 899 -17 942 0 910 -2 901 47 -4 22 -882 663 -906 662 -9 0 -168 -110
-352 -245z m707 -95 c192 -139 357 -260 368 -270 19 -19 1 -19 -725 -18 -644
0 -742 2 -725 14 11 8 178 129 370 269 193 140 353 255 357 255 4 1 164 -112
355 -250z"/>
        <path d="M3515 1868 c-3 -7 -4 -310 -3 -673 l3 -660 114 -3 114 -3 -6 458 c-4
252 -7 556 -7 676 l0 217 -105 0 c-75 0 -107 -4 -110 -12z"/>
        <path d="M4025 1866 c-53 -24 -78 -60 -83 -119 -5 -65 14 -109 61 -137 96 -59
227 24 213 134 -11 93 -113 158 -191 122z"/>
        <path d="M5749 1467 c-51 -19 -99 -59 -134 -111 -16 -25 -33 -46 -36 -46 -3 0
-9 28 -12 61 -7 83 -19 93 -117 97 l-80 4 0 -471 0 -471 110 0 110 0 0 285 c0
310 1 316 59 378 42 46 73 57 159 57 52 0 83 4 89 13 6 6 13 51 17 98 6 69 4
88 -8 98 -22 19 -116 23 -157 8z"/>
        <path d="M6312 1470 c-249 -53 -389 -287 -339 -566 54 -296 316 -447 619 -358
90 27 198 92 198 120 0 6 -16 32 -35 58 -44 57 -60 58 -155 10 -81 -42 -167
-54 -240 -34 -88 23 -160 125 -172 245 l-3 30 296 3 c261 2 298 4 310 19 19
22 15 150 -7 216 -51 160 -176 252 -353 262 -42 2 -95 0 -119 -5z m210 -188
c40 -25 75 -83 80 -132 l3 -35 -207 -3 c-115 -1 -208 1 -208 6 0 5 7 29 15 54
17 50 74 110 120 127 47 17 157 7 197 -17z"/>
        <path d="M7182 1469 c-59 -11 -159 -67 -188 -104 -78 -103 -76 -254 4 -338 35
-38 114 -77 234 -116 141 -47 180 -91 147 -164 -6 -14 -29 -35 -51 -47 -58
-32 -153 -25 -234 19 -88 47 -109 42 -159 -38 l-28 -45 24 -19 c73 -60 232
-103 343 -92 182 17 293 107 318 257 14 81 -1 135 -49 189 -43 47 -96 76 -213
114 -151 49 -180 71 -180 134 0 84 124 117 253 67 34 -13 70 -26 79 -29 22 -8
58 22 82 67 18 34 18 37 2 55 -26 28 -106 69 -171 86 -64 16 -144 18 -213 4z"/>
        <path d="M3977 1464 c-4 -4 -7 -216 -7 -471 l0 -463 110 0 110 0 -2 468 -3
467 -101 3 c-55 1 -103 0 -107 -4z"/>
        <path d="M4326 1461 c-5 -8 152 -420 329 -864 l27 -68 101 3 100 3 67 170
c199 505 290 741 290 753 0 9 -25 12 -89 12 -79 0 -93 -3 -115 -22 -19 -17
-51 -94 -126 -303 -55 -154 -104 -300 -110 -324 -13 -51 -22 -45 -40 29 -7 30
-49 154 -93 275 -43 121 -86 240 -94 265 -9 25 -22 52 -29 60 -18 18 -208 28
-218 11z"/>
        <path d="M603 1270 c-46 -10 -79 -24 -105 -48 -17 -14 -18 -44 -18 -358 0
-188 3 -349 6 -358 8 -22 42 -20 95 6 35 17 63 21 134 22 79 0 97 -3 144 -27
l53 -27 57 27 c48 24 68 28 141 27 65 0 97 -6 134 -22 27 -12 56 -22 65 -22
40 0 41 13 41 365 0 385 3 371 -77 402 -67 26 -238 25 -308 -1 -48 -17 -53
-18 -100 -1 -59 19 -202 28 -262 15z m245 -94 l32 -17 0 -194 c0 -186 1 -194
20 -200 46 -14 50 4 50 210 l0 193 38 14 c48 17 229 17 260 0 l22 -13 0 -289
c0 -160 -1 -290 -3 -290 -1 0 -18 5 -37 10 -60 18 -210 14 -265 -8 -48 -19
-50 -19 -104 0 -61 22 -201 26 -261 8 -19 -5 -36 -10 -37 -10 -2 0 -3 132 -3
294 l0 295 43 10 c62 15 206 7 245 -13z"/>
        <path d="M97 1263 c-4 -3 -7 -176 -7 -383 0 -279 3 -379 12 -388 15 -15 251
-17 279 -2 18 10 19 25 19 383 0 277 -3 376 -12 385 -13 13 -279 18 -291 5z
m223 -388 l0 -315 -74 0 c-58 0 -75 3 -80 16 -3 9 -6 150 -6 315 l0 299 80 0
80 0 0 -315z"/>
        <path d="M1437 1263 c-4 -3 -7 -176 -7 -383 0 -279 3 -379 12 -388 15 -15 251
-17 279 -2 18 10 19 25 19 383 0 277 -3 376 -12 385 -13 13 -279 18 -291 5z
m223 -388 l0 -315 -74 0 c-58 0 -75 3 -80 16 -3 9 -6 150 -6 315 l0 299 80 0
80 0 0 -315z"/>
        <path d="M12 388 c-8 -8 -12 -46 -12 -105 0 -81 2 -94 19 -103 13 -7 312 -10
899 -10 741 0 881 2 891 14 8 9 11 48 9 112 l-3 99 -895 3 c-689 2 -899 -1
-908 -10z m1728 -98 l0 -40 -827 2 -828 3 -3 23 c-8 55 -60 52 833 52 l825 0
0 -40z"/>
    </g>
</svg>
